<svg xmlns="http://www.w3.org/2000/svg" viewBox="0 0 1080 1080"><defs><style>.cls-1{fill:#f6011f;}.cls-1,.cls-2,.cls-3{stroke:#ac9878;stroke-miterlimit:10;}.cls-1,.cls-2{stroke-width:10px;}.cls-2{fill:#0105c2;}.cls-3{fill:#fff;stroke-width:8px;}.cls-4{fill:#ac9878;}</style></defs><g id="Logo_a_color" data-name="Logo a color"><circle class="cls-1" cx="540" cy="540" r="513.29"/><circle class="cls-2" cx="540" cy="540" r="366.87"/><path class="cls-3" d="M311,284.58V665c0,72.06,63.73,130.47,142.35,130.47H769V681.54H514.26c-36.17,0-65.49-26.88-65.49-60V284.58Z"/><path class="cls-3" d="M473.73,296.72V635.55a12.15,12.15,0,0,0,12.15,12.15h98.7a12.15,12.15,0,0,0,12.15-12.15V400.84a12.15,12.15,0,0,1,12.14-12.14H750.29a12.14,12.14,0,0,0,9.84-19.27c-22-30.09-74.21-84.85-163.4-84.85H485.88A12.15,12.15,0,0,0,473.73,296.72Z"/><path class="cls-3" d="M644.07,424.55V526.92a5.92,5.92,0,0,0,5.92,5.92H754.73a5.91,5.91,0,0,0,4.18-10.1l-45.3-45.3a5.93,5.93,0,0,1,.2-8.56l43.89-39.95a5.92,5.92,0,0,0-4-10.3H650A5.92,5.92,0,0,0,644.07,424.55Z"/><path class="cls-3" d="M644.07,564.35v79.92a3.68,3.68,0,0,0,3.47,3.68c19.87,1.15,118.58,2.48,121.41-83.47a3.7,3.7,0,0,0-3.69-3.82H647.76A3.69,3.69,0,0,0,644.07,564.35Z"/><path class="cls-4" d="M220.89,825.68c10.39-6.65,12.36-13.9,7.71-19.41-4-4.7-9.9-6.65-23,1.68L162,835.67c-.54.34-.79.43-1.1.07l-6-7.18c-.31-.36-.08-.68.4-1.08l44.58-28.31c18.95-12.15,30.79-10.24,39.29-.17,8.25,9.78,6.73,23.23-10.5,34.29l-44.7,28.55c-.45.25-.7.34-1,0l-6.11-7.25c-.25-.29-.12-.52.43-.86Z"/><path class="cls-4" d="M143.52,811.86l-6.44-10.07c-.2-.32-.2-.54.13-1,23.16-23.69,41.76-42.11,46-45.82l-.11-.16c-3.5,2-16.27,8.49-57.36,27.78-.42.28-.74.25-.94-.07l-4.9-7.67c-.16-.24.06-.6.38-.8l73.65-34.38c.8-.39,1-.38,1.21,0L201,749c.36.56.25.85-.18,1.35-22.1,22.79-42.94,43.09-48.32,47.55l.05.08c6.15-3.49,15.58-8.17,60.32-29,.48-.19.69-.32,1,.08l4.74,7.43c.21.31.31.7-.38,1L144.51,812C144,812.2,143.72,812.18,143.52,811.86Z"/><path class="cls-4" d="M184.69,721.69c.6-.21.87-.24,1.09.18l4.25,8.26c.21.43.08.71-.53.91l-76.61,27.48c-.56.28-.8.09-.93-.16l-4.3-8.35c-.26-.51,0-.76.48-1Z"/><path class="cls-4" d="M101,733.85a1,1,0,0,1-.88-.16c-1.08-2.33-3.33-7.24-5.24-12-6.49-16.09,1.51-31,23-39.64,12.51-5,26.75-6.49,37.84-2.58,11.4,4,16.49,12.57,19.33,19.6,1.8,4.49,3.92,10.07,5.18,13.55.18.44-.21.8-.84,1Zm63.4-27.19c-.35-1.19-.87-2.82-1.68-4.85-2.52-6.24-6.49-10.36-12.39-12.17-8.1-2.56-18.83-1.2-28.07,2.52-13.57,5.47-20,14-15.51,25.26a37.9,37.9,0,0,0,1.72,3.6Z"/><path class="cls-4" d="M135.83,658l23.34,2c.54.06.68.12.8.57l2.37,9c.14.55-.08.7-.74.68l-79.18-7.58a35.32,35.32,0,0,0-6.21.17c-.61.16-.78,0-.86-.27l-3.09-11.73c-.09-.37,0-.49.61-.65l75.72-28.86c.71-.29,1-.26,1.12.29l2.3,8.71c.14.55,0,.8-.64,1.05l-20.52,7.76Zm-17.07-14.82c-15.05,5.73-27.2,10.11-32.88,11.8l0,.18c6.1-.13,25.47,1.14,36.51,2Z"/><path class="cls-4" d="M66.65,618.84a.91.91,0,0,1-.81-.37c-.46-2.52-1.42-7.84-2.09-12.92-2.26-17.2,9.2-29.61,32.2-32.64,13.37-1.77,27.52.38,37.28,6.94,10.05,6.71,12.83,16.28,13.83,23.8.63,4.8,1.28,10.74,1.64,14.42.06.47-.41.72-1,.71Zm68.18-10.51c0-1.24-.14-3-.42-5.11-.88-6.68-3.7-11.66-9-14.89-7.2-4.5-17.94-5.86-27.81-4.55-14.5,1.91-22.91,8.56-21.33,20.59a38.27,38.27,0,0,0,.78,3.92Z"/><path class="cls-4" d="M141.86,513.43c.5.11.63.11.61.58l-1,34.78c0,.47-.27.65-1,.54L60.23,536.45c-.5-.11-.75-.21-.74-.68l.9-31.93c0-.48.4-.56.78-.65l11.21.32c.63,0,.88.12.87.59L72.58,528l21.22,3.35.62-21.89c0-.38.14-.47.77-.45l11.29,1.93c.38.1.75.21.74.68l-.61,21.79L129.08,537l.75-26.34c0-.47.26-.46.89-.35Z"/><path class="cls-4" d="M63.17,486.28a1,1,0,0,1-.68-.58c.25-2.55.77-7.93,1.51-13,2.49-17.16,16.89-26,39.85-22.67,13.35,1.94,26.38,7.85,34,16.81,7.84,9.19,7.92,19.16,6.83,26.66-.69,4.79-1.68,10.68-2.33,14.32-.07.47-.6.59-1.21.4Zm68.47,8.4c.3-1.2.67-2.87,1-5,1-6.66-.4-12.22-4.58-16.76-5.71-6.28-15.67-10.51-25.53-11.94-14.47-2.1-24.37,2-26.11,14a39,39,0,0,0-.33,4Z"/><path class="cls-4" d="M124.64,435.12c11.33,4.89,18.43,2.47,20.4-4.46,1.69-5.93,0-11.93-14.25-18.14L83.44,391.88c-.58-.26-.8-.42-.67-.88l2.57-9c.12-.46.51-.45,1.12-.28l48.4,21.14c20.66,8.92,25.7,19.81,22.1,32.49-3.5,12.31-15.5,18.56-34.3,10.46L74,424.68c-.46-.23-.68-.39-.55-.84L76,414.72c.1-.37.37-.39.95-.13Z"/><path class="cls-4" d="M177.7,368.47c.51.42.82.66.87,1.19.4,2.95-.46,6.6-2.34,11.06-5.81,13.8-21,19.42-43,10.17-23-9.69-40.23-30.53-31.54-51.14,2-4.64,4.65-8.44,7-9.72a1,1,0,0,1,1.19.09l9.49,6.05c.39.37.43.6.17.9a18.58,18.58,0,0,0-6.23,8.28C107.54,359,119,373,136.8,380.46c12.44,5.24,23.79,4.26,28.43-6.75,1.69-4,2.39-7.63,1.87-11.25,0-.4.14-.66.8-.28Z"/><path class="cls-4" d="M169.35,340.31l15.23,17.81c.34.41.4.56.17,1l-4.63,8.06c-.28.49-.55.45-1,0l-51.06-61a35.91,35.91,0,0,0-4.54-4.25c-.55-.31-.56-.54-.42-.78l6-10.53c.19-.33.34-.35.89,0l74.17,32.62c.71.29.88.5.6,1L200.31,332c-.28.5-.59.54-1.19.3l-20.05-8.88Zm-1.75-22.54c-14.74-6.49-26.46-11.9-31.69-14.69l-.09.17c4.43,4.18,17.33,18.69,24.61,27Z"/><path class="cls-4" d="M157.9,270.45,148.29,284c-.28.39-.59.17-.94-.2L139.64,275a.76.76,0,0,1,0-1.06l24.13-33.91c.27-.38.53-.32.94,0l9.15,6.5c.62.44.61.67.33,1.05L164.06,261.8l50.72,47.25c.41.29.5.59.23,1l-5.28,7.42c-.27.39-.7.55-1.26,0Z"/><path class="cls-4" d="M234.22,283.68c.43.48.56.72.26,1.08l-6,7.13c-.31.36-.62.34-1.05-.13l-55.09-59.92c-.48-.4-.4-.7-.21-.92l6-7.2c.36-.43.71-.26,1.1.06Z"/><path class="cls-4" d="M245,251.54c-3.68-6.33-9.59-18.09-31.21-63.77-.22-.49-.27-.8,0-1.07l6.75-6.79c.27-.27.74-.2,1.07.53l35.87,78c.23.49.27.8-.06,1.13l-7.29,7.33c-.4.41-.71.36-1.2.14l-63.45-50.63c-.36-.35-.56-.69-.29-1l6.68-6.72c.27-.27.58-.23,1,.06,38.09,30.9,48,39.39,52,42.85Z"/><path class="cls-4" d="M266.55,220l7.79,22.09c.17.51.18.67-.19,1l-7.21,5.85c-.44.36-.68.23-.93-.38l-25.69-75.28a34.81,34.81,0,0,0-2.71-5.6c-.39-.49-.33-.71-.11-.88l9.43-7.65c.29-.24.44-.2.84.29l57.47,57.12c.55.53.64.78.19,1.14l-7,5.68c-.44.36-.75.28-1.22-.15l-15.51-15.5ZM273,198.32c-11.41-11.36-20.4-20.63-24.28-25.11l-.15.12c2.63,5.49,9.45,23.67,13.24,34.07Z"/><path class="cls-4" d="M326.77,188.69,348.46,176c.41-.24.61-.07.77.57l3.31,10.92c.16.64.06.84-.35,1.08l-29.05,17a.6.6,0,0,1-.87-.36L290.61,130.1c-.17-.49-.22-.75.19-1l8.18-4.79c.33-.19.62-.07.86.52Z"/><path class="cls-4" d="M354,154.1c3.51,11.82,9.92,15.72,16.5,12.78,5.63-2.51,9.14-7.67,4.77-22.56L360.72,94.76c-.17-.62-.18-.89.25-1.08l8.57-3.83c.43-.19.67.12.93.69l14.84,50.68c6.42,21.57,1.29,32.42-10.74,37.8-11.69,5.21-24.18,0-30-19.6l-15-50.87c-.12-.49-.14-.76.3-1l8.65-3.86c.35-.16.54,0,.71.65Z"/><path class="cls-4" d="M412.1,162c.11.62.11.89-.34,1l-8.8,3c-.45.15-.71,0-.82-.66L386.21,85.53c-.2-.6,0-.81.3-.9l8.89-3c.53-.18.75.14.91.62Z"/><path class="cls-4" d="M416.72,141.94c0-.39.21-.7.58-.41a22.49,22.49,0,0,0,16.6,2.5c6.79-1.75,8.35-6.71,7-12.09s-5.24-8.15-11.54-11.35c-10-5-15.79-9.21-18.68-20.44s.57-24.37,14.25-27.89c6.24-1.61,11.4-1,14.53.55A1.22,1.22,0,0,1,440,74l1.12,11.56c0,.51-.12.68-.55.53a19.41,19.41,0,0,0-13.43-1.22c-6.79,1.75-8,7.15-6.82,11.91,1.29,5,5.78,7.23,11.78,10.37,10.55,5.23,16.13,10.17,18.78,20.82,3.2,12.45-1.12,25.29-14.8,28.81a25.1,25.1,0,0,1-17.42-1.5c-.56-.25-.68-.74-.84-1.35Z"/><path class="cls-4" d="M486.72,144.43c0,.77-.09.9-.56.95l-9.33,1c-.47.05-.7-.3-.66-.82l1.66-81.24c.13-.52.18-.9.56-.95l32.13-3.53c.38,0,.68.05.75.68l1.24,11.28c0,.5-.11.77-.49.82l-24,2.64-.29,23.37,21.39-2.35c.38,0,.51.32.56.7l-.18,11.43c-.12.65-.29.8-.67.84l-21.48,2.36Z"/><path class="cls-4" d="M551.34,141c-.09.5-.09.63-.56.64l-34.79.56c-.47,0-.67-.24-.59-1l9.31-80.73c.09-.5.18-.76.66-.76l31.94-.52c.47,0,.57.37.68.74l.18,11.22c0,.63-.08.89-.56.89l-23.88.39-2.41,21.35,21.9-.35c.38,0,.47.12.49.75l-1.43,11.37c-.09.38-.18.76-.65.76l-21.8.36-2.58,22.61,26.35-.42c.48,0,.48.24.4.87Z"/><path class="cls-4" d="M570,130.18l25,2.23c.47,0,.55.3.3.91l-3.63,10.82c-.24.61-.44.72-.91.68l-33.52-3a.6.6,0,0,1-.5-.8l17.74-79.56c.14-.5.26-.74.73-.7l9.44.84c.38,0,.55.3.4.92Z"/><path class="cls-4" d="M606.74,146.57c-.2.61-.33.84-.8.77l-9.16-1.53c-.47-.08-.61-.36-.42-1L620.11,67c.1-.62.4-.7.68-.65l9.26,1.54c.56.09.59.48.51,1Z"/><path class="cls-4" d="M646.55,72.19c.24-.58.55-.64.73-.59,3.83.71,8.37,1.73,12.59,2.8,11.86,3,20.13,12.79,16,29.29-4.81,18.94-19.2,24.78-33.35,21.19-2-.51-3.37-1-5-1.53l-10.87,27c-.12.49-.37.69-.74.6l-9.09-2.31c-.37-.1-.59-.41-.34-1Zm-4.5,39.71c1.35.47,2.72.82,4.56,1.28,9.16,2.46,16.28-1.72,18.7-11.25,2.11-8.31-1-13.66-8.23-15.36-1.56-.39-2.94-.74-4.44-1Z"/><path class="cls-4" d="M693.49,171.56c-.27.44-.31.56-.76.4l-32.59-12.15c-.45-.17-.54-.47-.18-1.15l38.09-71.78c.27-.44.45-.64.89-.47l29.93,11.15c.45.17.4.56.36.94L725.31,109c-.22.59-.4.79-.84.63l-22.39-8.35-10,19L712.58,128c.36.13.4.28.18.87l-5.47,10.07c-.22.32-.45.64-.89.48L686,131.76l-10.64,20.12,24.7,9.2c.44.17.35.41,0,1Z"/><path class="cls-4" d="M763.11,115.52c.39-.51.68-.64,1-.61,2.72,1.53,7.62,3.85,11.84,6.21,11.16,6.27,14.2,16.93,7.72,28.48-5.18,9.24-12.2,11.66-16.08,12.38,1.27,3.16,2.28,10.09-2.48,18.56-7.89,14.07-21.51,17.42-35.56,9.53-5.13-2.87-11.85-6.79-14.93-8.66-.33-.19-.25-.72.15-1.22Zm-32.57,61c1.59,1,4,2.54,6.16,3.74,7.36,4.13,14.54,3,18.86-4.74,3-5.12,2.29-9.12-.22-12.41a19.12,19.12,0,0,0-5.45-4.22l-4.39-2.46Zm22.35-30,4.47,2.5a29.88,29.88,0,0,1,6.26,4.53c3-.34,7-2.16,9.94-7.44,3.64-6.49,1.66-11.5-3.3-14.28-1.48-.84-2.7-1.38-4.67-2.33Z"/><path class="cls-4" d="M827.72,194.7c-15.12,20.49-39.31,35.23-55.25,23.47-10.91-8-10.13-23,1.62-38.92,14.6-19.79,39.84-35.79,55.93-23.91C840.62,163.16,840,178.06,827.72,194.7Zm-44.56-9.23c-6.06,8.22-9.54,17.72-2.29,23.07,9.84,7.26,27.38-5.81,38.31-20.62,6.06-8.22,9.69-17.45,2.37-22.85C812.09,158.09,794.47,170.15,783.16,185.47Z"/><path class="cls-4" d="M805.51,242.09c-.42.3-.66.42-.93.16l-6.74-6.39c-.35-.33-.31-.64.19-1l63.07-51.05c.5-.39.81-.44,1.09-.18,3.27,2.75,6.93,6.05,10.43,9.38,7.57,7.18,11.54,18.42-.26,30.86-8.51,9-18.27,11-27.05,7.7-2,4.88-11.46,24.76-15.28,33.47-.3.59-.56.86-1,.47l-7.43-7.05a1.09,1.09,0,0,1-.22-1.42c2.84-5.47,9.42-19.57,14.2-28.59.76-1.36.5-1.78-.11-2.37l-4.61-4.37Zm35-28.26,4.13,3.91c6.87,6.53,14,5.1,19.1-.3,5.55-5.85,4.85-11-.17-15.8-1.24-1.17-2.63-2.32-3.89-3.34Z"/><path class="cls-4" d="M912.87,236.71c.24.29.24.67-.3,1l-49.88,32.7a83.59,83.59,0,0,1-12.81,7.16c-10.16,4.24-16.83,2.1-21.84-3.71a13.34,13.34,0,0,1-2.85-5.05c0-.38.13-.62.61-1l9.78-6c.44-.26.72-.13.81.17a10.4,10.4,0,0,0,1.87,3.14c3.78,4.38,7.72,3.74,16.92-2.19l50.52-33.12c.48-.42.73-.51,1.1-.08Z"/><path class="cls-4" d="M876.47,287l-22.53,6.41c-.52.14-.68.13-1-.25l-5.4-7.57c-.33-.46-.18-.68.45-.89l76.73-21a36,36,0,0,0,5.75-2.36c.51-.37.73-.28.89-.05l7.05,9.88c.22.3.17.46-.34.82l-60.58,53.81c-.56.51-.82.58-1.15.12l-5.23-7.33c-.33-.47-.24-.77.22-1.21l16.44-14.52Zm21.22,7.81c12-10.68,21.85-19.08,26.57-22.67l-.11-.16c-5.65,2.29-24.22,8-34.83,11.1Z"/><path class="cls-4" d="M965.16,317.43a1,1,0,0,1,.89.09c1.23,2.25,3.8,7,6,11.62,7.54,15.62.55,31-20.34,41.09-12.15,5.87-26.26,8.26-37.59,5.1-11.63-3.22-17.28-11.44-20.58-18.27-2.11-4.35-4.59-9.79-6.08-13.17-.21-.43.16-.82.77-1Zm-61.45,31.36c.43,1.16,1.06,2.76,2,4.72,2.93,6.06,7.17,9.91,13.18,11.32,8.25,2,18.87-.06,27.84-4.39,13.17-6.36,19.07-15.32,13.79-26.24a38.23,38.23,0,0,0-2-3.48Z"/><path class="cls-4" d="M922,424.33c-.51.07-.63.11-.78-.34L909.88,391.1c-.16-.45,0-.71.76-.87L990.27,374c.51-.07.78-.06.94.38l10.41,30.21c.15.45-.17.66-.5.87l-10.61,3.66c-.59.21-.86.2-1-.25l-7.78-22.59-21.05,4.35,7.14,20.7c.12.36,0,.49-.56.7L956,414.21c-.39,0-.78.07-.93-.38L948,393.22l-22.3,4.57,8.59,24.92c.16.45-.08.53-.71.65Z"/><path class="cls-4" d="M938.27,438.56,944,463c.11.46-.11.61-.77.57l-11.41,0c-.65,0-.82-.19-.93-.65l-7.73-32.76a.61.61,0,0,1,.61-.73l81.09-8.23c.52,0,.78,0,.89.48l2.18,9.22c.09.37-.11.61-.75.67Z"/><path class="cls-4" d="M958.61,495.46,936,489.36c-.52-.14-.65-.23-.69-.7l-.73-9.26c-.05-.57.2-.68.84-.55L1012,500.36a34.74,34.74,0,0,0,6.14.94c.63-.05.77.13.8.41l1,12.1c0,.38-.08.48-.71.53l-79.63,15c-.75.15-1,.08-1-.49l-.72-9c0-.56.2-.77.82-.92l21.56-4Zm14.17,17.61c15.82-3,28.55-5.11,34.45-5.77l0-.19c-6-.95-24.85-5.64-35.57-8.4Z"/><path class="cls-4" d="M950.87,544.88,950.16,570c0,.47-.27.56-.9.35l-11-3c-.63-.2-.75-.4-.73-.87l.94-33.64a.61.61,0,0,1,.78-.55l80.49,12.9c.5.1.75.21.73.68l-.26,9.48c0,.37-.27.56-.9.44Z"/><path class="cls-4" d="M935,608.28c-.6-.27-1-.41-1.15-.91-1.18-2.73-1.34-6.48-.73-11.27,1.88-14.86,15-24.38,38.67-21.38,24.77,3.14,47,18.57,44.15,40.76-.63,5-2.2,9.38-4.09,11.24a1,1,0,0,1-1.17.23l-10.77-3.27c-.48-.26-.58-.46-.41-.82a18.48,18.48,0,0,0,3.77-9.65c1.86-14.68-13-25.06-32.11-27.49-13.38-1.69-24.06,2.31-25.56,14.16-.55,4.32-.25,8,1.23,11.33.08.4.05.68-.69.49Z"/><path class="cls-4" d="M950.59,633.16l-19.46-13c-.44-.31-.54-.43-.42-.89l2.28-9c.14-.55.41-.58,1-.24l65.6,45a36.28,36.28,0,0,0,5.52,2.86c.61.16.69.37.62.65l-3,11.76c-.09.37-.23.43-.84.27l-80.23-11.44c-.75-.09-1-.25-.83-.8l2.21-8.73c.14-.55.43-.67,1.07-.61l21.7,3.16Zm7.75,21.23c15.95,2.28,28.69,4.34,34.48,5.61l0-.18c-5.4-2.83-21.73-13.33-31-19.4Zm64.43,21.42a1.31,1.31,0,0,1,.2,1.23l-3,11.85c-.14.55-.63.43-1.05,0l-10-17.59a1.58,1.58,0,0,1-.06-1.29l2.4-9.46c.09-.37.6-.34.92-.06Z"/><path class="cls-4" d="M920.54,660.13c.14-.35.44-.44,1-.12l6.67,3.71a7.78,7.78,0,0,1,1.29,1.21c9.6,12.18,28.94,36.89,42.6,54.3l10.13-26.06c.17-.45.44-.44,1-.13l9.49,6.54c.56.32.57.63.47.9l-14.33,36.84c-.13.36-.44.44-.91.26l-7.07-4.07a6.2,6.2,0,0,1-1.49-1.39c-10.89-13.39-30.14-37.66-42.3-53.68L916,707.07a.48.48,0,0,1-.84.08l-9.52-6.85a.64.64,0,0,1-.31-.94Z"/><path class="cls-4" d="M916.52,728.4l-15.76-17.33c-.35-.41-.42-.55-.19-1l4.37-8.2c.27-.5.54-.46,1,0l52.87,59.43a35.74,35.74,0,0,0,4.67,4.1c.56.3.58.53.44.78l-5.71,10.7c-.18.34-.34.36-.89.06L882.2,746.61c-.71-.27-.89-.47-.62-1l4.24-7.95c.27-.5.58-.55,1.18-.33l20.31,8.27ZM919,750.88c14.93,6,26.8,11.1,32.12,13.72l.09-.17c-4.56-4-17.89-18.15-25.42-26.26Z"/><path class="cls-4" d="M874.64,757.48c-.36-.37-.52-.59-.3-.9l5.31-7.63c.27-.39.58-.4,1.05,0l59.94,54.67c.47.44.57.74.35,1.05-2.23,3.65-4.94,7.77-7.71,11.73-6,8.56-16.47,14.18-30.54,4.38-10.14-7.06-13.62-16.41-11.69-25.58-5.12-1.25-26.2-7.61-35.38-10.08-.63-.2-.94-.42-.61-.88l5.85-8.41a1.08,1.08,0,0,1,1.37-.43c5.84,2,20.76,6.37,30.4,9.73,1.46.56,1.84.24,2.32-.46l3.63-5.21Zm33.21,30.4-3.25,4.67c-5.42,7.78-2.94,14.59,3.17,18.84,6.62,4.61,11.64,3.14,15.59-2.54,1-1.4,1.91-3,2.72-4.35Z"/><path class="cls-4" d="M463.63,1016.41a2.46,2.46,0,0,1-1.11-.76c-2.47-3-6.79-8.61-11.9-15.34a39.19,39.19,0,0,1-5.89-1c-19.34-4.76-27.39-20.9-22.93-39,4.56-18.51,20.54-28,38.16-23.71,19,4.69,27,21.11,22.84,38.53-3.25,13.65-11.75,22-22.47,24.54,4.23,5.53,10.95,14.41,14.57,18.92.16.23.07.6-.34.5Zm-17-23.91c13.46,3.32,23.91-4.66,27.41-19.32,3.51-14.27-2.62-26.42-15.89-29.69-12.15-3-23.88,3.2-27.75,19C427.12,975.78,432.05,988.91,446.64,992.5Z"/><path class="cls-4" d="M504.92,985.5c-.49,10.42,5.46,17.24,16.81,17.77,8.75.41,17.25-2.71,17.89-16.35l1.8-38.63c0-.47.23-.65.65-.63l7.4.34c.52,0,.72.22.7.7l-1.81,38.73c-.81,17.42-12.48,23.62-27.27,22.93-15.73-.74-25.58-9-24.84-24.79l1.83-39.3c0-.38.13-.66.66-.63l7.39.34q.63,0,.6.6Z"/><path class="cls-4" d="M576.73,1007.53c0,.47-.05.67-.57.71l-7.27.59c-.52,0-.75-.13-.79-.6l-4.94-61.14c0-.47.15-.68.57-.71l7.38-.6c.41,0,.64.14.67.52Z"/><path class="cls-4" d="M601.45,948.93l-21.91,4.26c-.41.08-.65-.07-.64-.56l-.11-6.06c0-.39.2-.61.71-.71l50.06-9.73a.71.71,0,0,1,.94.49l1.84,5.64c.19.44,0,.67-.39.75l-21.9,4.25,10.42,53.7c.11.56-.06.78-.57.88l-7.07,1.37c-.51.1-.85,0-.94-.49Z"/><path class="cls-4" d="M699.13,943.42c7.33,19-.73,35.15-17.6,41.55-18.62,7.06-34.42-1.66-41-19.12-6.75-17.82,1-34.75,18-41.18C676.79,917.72,692.69,926.7,699.13,943.42Zm-19.92,34.83c13-4.92,17-17.41,11.6-31.47-5.2-13.74-17.15-20.27-29.93-15.42-11.7,4.43-17.84,16.19-12.1,31.35C653.66,975.56,665.17,983.57,679.21,978.25Z"/><polygon class="cls-4" points="330.54 878.35 321.11 907.38 347.84 922.11 317.32 922.12 311.56 952.09 302.13 923.07 271.84 926.85 296.53 908.91 283.57 881.28 308.26 899.21 330.54 878.35"/><polygon class="cls-4" points="816.36 883.21 800.94 909.55 823.89 929.67 794.08 923.14 782.04 951.19 779.03 920.81 748.64 918.03 776.6 905.79 769.85 876.02 790.13 898.83 816.36 883.21"/></g></svg>